<?xml version="1.0" encoding="UTF-8" standalone="no"?>
<!DOCTYPE svg PUBLIC "-//W3C//DTD SVG 1.1//EN"
 "http://www.w3.org/Graphics/SVG/1.1/DTD/svg11.dtd">
<!-- Generated by graphviz version 2.43.0 (0)
 -->
<!-- Title: G Pages: 1 -->
<svg width="990pt" height="782pt"
 viewBox="0.00 0.00 990.00 782.00" xmlns="http://www.w3.org/2000/svg" xmlns:xlink="http://www.w3.org/1999/xlink">
<g id="graph0" class="graph" transform="scale(1 1) rotate(0) translate(4 778)">
<title>G</title>
<polygon fill="white" stroke="transparent" points="-4,4 -4,-778 986,-778 986,4 -4,4"/>
<g id="clust1" class="cluster">
<title>cluster_root</title>
<g id="a_clust1"><a xlink:title="eventq_index=0&#10;full_system=false&#10;sim_quantum=0&#10;time_sync_enable=false&#10;time_sync_period=100000000000&#10;time_sync_spin_threshold=100000000">
<path fill="#bab6ae" stroke="#000000" d="M20,-8C20,-8 962,-8 962,-8 968,-8 974,-14 974,-20 974,-20 974,-754 974,-754 974,-760 968,-766 962,-766 962,-766 20,-766 20,-766 14,-766 8,-760 8,-754 8,-754 8,-20 8,-20 8,-14 14,-8 20,-8"/>
<text text-anchor="middle" x="491" y="-750.8" font-family="Arial" font-size="14.00" fill="#000000">root </text>
<text text-anchor="middle" x="491" y="-735.8" font-family="Arial" font-size="14.00" fill="#000000">: Root</text>
</a>
</g>
</g>
<g id="clust2" class="cluster">
<title>cluster_board</title>
<g id="a_clust2"><a xlink:title="auto_unlink_shared_backstore=false&#10;cache_line_size=64&#10;eventq_index=0&#10;exit_on_work_items=true&#10;external_memory_ranges=&#10;init_param=0&#10;m5ops_base=4294901760&#10;mem_mode=timing&#10;mem_ranges=0:2147483648&#10;memories=board.memory.mem_ctrl.dram&#10;mmap_using_noreserve=false&#10;multi_thread=false&#10;&#10;um_work_ids=16&#10;&#13;eadfile=&#10;&#13;edirect_paths=&#10;shadow_rom_ranges=&#10;shared_backstore=&#10;symbolfile=&#10;thermal_components=&#10;thermal_model=Null&#10;work_begin_ckpt_count=0&#10;work_begin_cpu_id_exit=&#45;1&#10;work_begin_exit_count=0&#10;work_cpus_ckpt_count=0&#10;work_end_ckpt_count=0&#10;work_end_exit_count=0&#10;work_item_id=&#45;1&#10;workload=board.workload">
<path fill="#e4e7eb" stroke="#000000" d="M28,-16C28,-16 954,-16 954,-16 960,-16 966,-22 966,-28 966,-28 966,-708 966,-708 966,-714 960,-720 954,-720 954,-720 28,-720 28,-720 22,-720 16,-714 16,-708 16,-708 16,-28 16,-28 16,-22 22,-16 28,-16"/>
<text text-anchor="middle" x="491" y="-704.8" font-family="Arial" font-size="14.00" fill="#000000">board </text>
<text text-anchor="middle" x="491" y="-689.8" font-family="Arial" font-size="14.00" fill="#000000">: SimpleBoard</text>
</a>
</g>
</g>
<g id="clust6" class="cluster">
<title>cluster_board_processor</title>
<g id="a_clust6"><a xlink:title="eventq_index=0&#10;thermal_domain=Null">
<path fill="#bab6ae" stroke="#000000" d="M342,-314C342,-314 946,-314 946,-314 952,-314 958,-320 958,-326 958,-326 958,-662 958,-662 958,-668 952,-674 946,-674 946,-674 342,-674 342,-674 336,-674 330,-668 330,-662 330,-662 330,-326 330,-326 330,-320 336,-314 342,-314"/>
<text text-anchor="middle" x="644" y="-658.8" font-family="Arial" font-size="14.00" fill="#000000">processor </text>
<text text-anchor="middle" x="644" y="-643.8" font-family="Arial" font-size="14.00" fill="#000000">: SimpleProcessor</text>
</a>
</g>
</g>
<g id="clust7" class="cluster">
<title>cluster_board_processor_cores</title>
<g id="a_clust7"><a xlink:title="eventq_index=0&#10;thermal_domain=Null">
<path fill="#9f9c95" stroke="#000000" d="M350,-322C350,-322 938,-322 938,-322 944,-322 950,-328 950,-334 950,-334 950,-616 950,-616 950,-622 944,-628 938,-628 938,-628 350,-628 350,-628 344,-628 338,-622 338,-616 338,-616 338,-334 338,-334 338,-328 344,-322 350,-322"/>
<text text-anchor="middle" x="644" y="-612.8" font-family="Arial" font-size="14.00" fill="#000000">cores </text>
<text text-anchor="middle" x="644" y="-597.8" font-family="Arial" font-size="14.00" fill="#000000">: SimpleCore</text>
</a>
</g>
</g>
<g id="clust8" class="cluster">
<title>cluster_board_processor_cores_core</title>
<g id="a_clust8"><a xlink:title="branchPred=Null&#10;checker=Null&#10;clk_domain=board.clk_domain&#10;cpu_id=0&#10;decoder=board.processor.cores.core.decoder&#10;do_checkpoint_insts=true&#10;do_statistics_insts=true&#10;eventq_index=0&#10;function_trace=false&#10;function_trace_start=0&#10;interrupts=board.processor.cores.core.interrupts&#10;isa=board.processor.cores.core.isa&#10;max_insts_all_threads=0&#10;max_insts_any_thread=0&#10;mmu=board.processor.cores.core.mmu&#10;&#10;umThreads=1&#10;power_gating_on_idle=false&#10;power_model=&#10;power_state=board.processor.cores.core.power_state&#10;progress_interval=0&#10;pwr_gating_latency=300&#10;simpoint_start_insts=&#10;socket_id=0&#10;switched_out=false&#10;syscallRetryLatency=10000&#10;system=board&#10;tracer=board.processor.cores.core.tracer&#10;workload=board.processor.cores.core.workload">
<path fill="#bbc6d9" stroke="#000000" d="M358,-330C358,-330 930,-330 930,-330 936,-330 942,-336 942,-342 942,-342 942,-570 942,-570 942,-576 936,-582 930,-582 930,-582 358,-582 358,-582 352,-582 346,-576 346,-570 346,-570 346,-342 346,-342 346,-336 352,-330 358,-330"/>
<text text-anchor="middle" x="644" y="-566.8" font-family="Arial" font-size="14.00" fill="#000000">core </text>
<text text-anchor="middle" x="644" y="-551.8" font-family="Arial" font-size="14.00" fill="#000000">: RiscvTimingSimpleCPU</text>
</a>
</g>
</g>
<g id="clust9" class="cluster">
<title>cluster_board_processor_cores_core_mmu</title>
<g id="a_clust9"><a xlink:title="dtb=board.processor.cores.core.mmu.dtb&#10;eventq_index=0&#10;itb=board.processor.cores.core.mmu.itb&#10;pma_checker=board.processor.cores.core.mmu.pma_checker&#10;pmp=board.processor.cores.core.mmu.pmp">
<path fill="#bab6ae" stroke="#000000" d="M366,-338C366,-338 718,-338 718,-338 724,-338 730,-344 730,-350 730,-350 730,-524 730,-524 730,-530 724,-536 718,-536 718,-536 366,-536 366,-536 360,-536 354,-530 354,-524 354,-524 354,-350 354,-350 354,-344 360,-338 366,-338"/>
<text text-anchor="middle" x="542" y="-520.8" font-family="Arial" font-size="14.00" fill="#000000">mmu </text>
<text text-anchor="middle" x="542" y="-505.8" font-family="Arial" font-size="14.00" fill="#000000">: RiscvMMU</text>
</a>
</g>
</g>
<g id="clust10" class="cluster">
<title>cluster_board_processor_cores_core_mmu_itb</title>
<g id="a_clust10"><a xlink:title="entry_type=instruction&#10;eventq_index=0&#10;&#10;ext_level=Null&#10;pma_checker=board.processor.cores.core.mmu.pma_checker&#10;pmp=board.processor.cores.core.mmu.pmp&#10;size=64&#10;walker=board.processor.cores.core.mmu.itb.walker">
<path fill="#9f9c95" stroke="#000000" d="M558,-346C558,-346 710,-346 710,-346 716,-346 722,-352 722,-358 722,-358 722,-478 722,-478 722,-484 716,-490 710,-490 710,-490 558,-490 558,-490 552,-490 546,-484 546,-478 546,-478 546,-358 546,-358 546,-352 552,-346 558,-346"/>
<text text-anchor="middle" x="634" y="-474.8" font-family="Arial" font-size="14.00" fill="#000000">itb </text>
<text text-anchor="middle" x="634" y="-459.8" font-family="Arial" font-size="14.00" fill="#000000">: RiscvTLB</text>
</a>
</g>
</g>
<g id="clust11" class="cluster">
<title>cluster_board_processor_cores_core_mmu_itb_walker</title>
<g id="a_clust11"><a xlink:title="clk_domain=board.clk_domain&#10;eventq_index=0&#10;&#10;um_squash_per_cycle=4&#10;pma_checker=board.processor.cores.core.mmu.pma_checker&#10;pmp=board.processor.cores.core.mmu.pmp&#10;power_model=&#10;power_state=board.processor.cores.core.mmu.itb.walker.power_state&#10;system=board">
<path fill="#84827c" stroke="#000000" d="M566,-354C566,-354 702,-354 702,-354 708,-354 714,-360 714,-366 714,-366 714,-432 714,-432 714,-438 708,-444 702,-444 702,-444 566,-444 566,-444 560,-444 554,-438 554,-432 554,-432 554,-366 554,-366 554,-360 560,-354 566,-354"/>
<text text-anchor="middle" x="634" y="-428.8" font-family="Arial" font-size="14.00" fill="#000000">walker </text>
<text text-anchor="middle" x="634" y="-413.8" font-family="Arial" font-size="14.00" fill="#000000">: RiscvPagetableWalker</text>
</a>
</g>
</g>
<g id="clust13" class="cluster">
<title>cluster_board_processor_cores_core_mmu_dtb</title>
<g id="a_clust13"><a xlink:title="entry_type=data&#10;eventq_index=0&#10;&#10;ext_level=Null&#10;pma_checker=board.processor.cores.core.mmu.pma_checker&#10;pmp=board.processor.cores.core.mmu.pmp&#10;size=64&#10;walker=board.processor.cores.core.mmu.dtb.walker">
<path fill="#9f9c95" stroke="#000000" d="M374,-346C374,-346 526,-346 526,-346 532,-346 538,-352 538,-358 538,-358 538,-478 538,-478 538,-484 532,-490 526,-490 526,-490 374,-490 374,-490 368,-490 362,-484 362,-478 362,-478 362,-358 362,-358 362,-352 368,-346 374,-346"/>
<text text-anchor="middle" x="450" y="-474.8" font-family="Arial" font-size="14.00" fill="#000000">dtb </text>
<text text-anchor="middle" x="450" y="-459.8" font-family="Arial" font-size="14.00" fill="#000000">: RiscvTLB</text>
</a>
</g>
</g>
<g id="clust14" class="cluster">
<title>cluster_board_processor_cores_core_mmu_dtb_walker</title>
<g id="a_clust14"><a xlink:title="clk_domain=board.clk_domain&#10;eventq_index=0&#10;&#10;um_squash_per_cycle=4&#10;pma_checker=board.processor.cores.core.mmu.pma_checker&#10;pmp=board.processor.cores.core.mmu.pmp&#10;power_model=&#10;power_state=board.processor.cores.core.mmu.dtb.walker.power_state&#10;system=board">
<path fill="#84827c" stroke="#000000" d="M382,-354C382,-354 518,-354 518,-354 524,-354 530,-360 530,-366 530,-366 530,-432 530,-432 530,-438 524,-444 518,-444 518,-444 382,-444 382,-444 376,-444 370,-438 370,-432 370,-432 370,-366 370,-366 370,-360 376,-354 382,-354"/>
<text text-anchor="middle" x="450" y="-428.8" font-family="Arial" font-size="14.00" fill="#000000">walker </text>
<text text-anchor="middle" x="450" y="-413.8" font-family="Arial" font-size="14.00" fill="#000000">: RiscvPagetableWalker</text>
</a>
</g>
</g>
<g id="clust25" class="cluster">
<title>cluster_board_memory</title>
<g id="a_clust25"><a xlink:title="eventq_index=0&#10;thermal_domain=Null">
<path fill="#bab6ae" stroke="#000000" d="M194,-346C194,-346 310,-346 310,-346 316,-346 322,-352 322,-358 322,-358 322,-478 322,-478 322,-484 316,-490 310,-490 310,-490 194,-490 194,-490 188,-490 182,-484 182,-478 182,-478 182,-358 182,-358 182,-352 188,-346 194,-346"/>
<text text-anchor="middle" x="252" y="-474.8" font-family="Arial" font-size="14.00" fill="#000000">memory </text>
<text text-anchor="middle" x="252" y="-459.8" font-family="Arial" font-size="14.00" fill="#000000">: ChanneledMemory</text>
</a>
</g>
</g>
<g id="clust26" class="cluster">
<title>cluster_board_memory_mem_ctrl</title>
<g id="a_clust26"><a xlink:title="clk_domain=board.clk_domain&#10;command_window=10000&#10;disable_sanity_check=false&#10;dram=board.memory.mem_ctrl.dram&#10;eventq_index=0&#10;mem_sched_policy=frfcfs&#10;min_reads_per_switch=16&#10;min_writes_per_switch=16&#10;power_model=&#10;power_state=board.memory.mem_ctrl.power_state&#10;qos_policy=Null&#10;qos_priorities=1&#10;qos_priority_escalation=false&#10;qos_q_policy=fifo&#10;qos_requestors= &#160;&#160;&#160;&#160;&#160;&#160;&#160;&#160;&#160;&#160;&#160;&#160;&#160;&#160;&#10;qos_syncro_scheduler=false&#10;qos_turnaround_policy=Null&#10;static_backend_latency=10000&#10;static_frontend_latency=10000&#10;system=board&#10;write_high_thresh_perc=85&#10;write_low_thresh_perc=50">
<path fill="#9f9c95" stroke="#000000" d="M249,-354C249,-354 302,-354 302,-354 308,-354 314,-360 314,-366 314,-366 314,-432 314,-432 314,-438 308,-444 302,-444 302,-444 249,-444 249,-444 243,-444 237,-438 237,-432 237,-432 237,-366 237,-366 237,-360 243,-354 249,-354"/>
<text text-anchor="middle" x="275.5" y="-428.8" font-family="Arial" font-size="14.00" fill="#000000">mem_ctrl </text>
<text text-anchor="middle" x="275.5" y="-413.8" font-family="Arial" font-size="14.00" fill="#000000">: MemCtrl</text>
</a>
</g>
</g>
<g id="clust30" class="cluster">
<title>cluster_board_cache_hierarchy</title>
<g id="a_clust30"><a xlink:title="eventq_index=0&#10;thermal_domain=Null">
<path fill="#bab6ae" stroke="#000000" d="M36,-24C36,-24 946,-24 946,-24 952,-24 958,-30 958,-36 958,-36 958,-294 958,-294 958,-300 952,-306 946,-306 946,-306 36,-306 36,-306 30,-306 24,-300 24,-294 24,-294 24,-36 24,-36 24,-30 30,-24 36,-24"/>
<text text-anchor="middle" x="491" y="-290.8" font-family="Arial" font-size="14.00" fill="#000000">cache_hierarchy </text>
<text text-anchor="middle" x="491" y="-275.8" font-family="Arial" font-size="14.00" fill="#000000">: PrivateL1PrivateL2CacheHierarchy</text>
</a>
</g>
</g>
<g id="clust31" class="cluster">
<title>cluster_board_cache_hierarchy_membus</title>
<g id="a_clust31"><a xlink:title="clk_domain=board.clk_domain&#10;eventq_index=0&#10;forward_latency=4&#10;frontend_latency=3&#10;header_latency=1&#10;max_outstanding_snoops=512&#10;max_routing_table_size=512&#10;point_of_coherency=true&#10;point_of_unification=true&#10;power_model=&#10;power_state=board.cache_hierarchy.membus.power_state&#10;&#13;esponse_latency=2&#10;snoop_filter=board.cache_hierarchy.membus.snoop_filter&#10;snoop_response_latency=4&#10;system=board&#10;use_default_range=false&#10;width=64">
<path fill="#6f798c" stroke="#000000" d="M44,-32C44,-32 356,-32 356,-32 362,-32 368,-38 368,-44 368,-44 368,-248 368,-248 368,-254 362,-260 356,-260 356,-260 44,-260 44,-260 38,-260 32,-254 32,-248 32,-248 32,-44 32,-44 32,-38 38,-32 44,-32"/>
<text text-anchor="middle" x="200" y="-244.8" font-family="Arial" font-size="14.00" fill="#000000">membus </text>
<text text-anchor="middle" x="200" y="-229.8" font-family="Arial" font-size="14.00" fill="#000000">: SystemXBar</text>
</a>
</g>
</g>
<g id="clust34" class="cluster">
<title>cluster_board_cache_hierarchy_membus_badaddr_responder</title>
<g id="a_clust34"><a xlink:title="clk_domain=board.clk_domain&#10;eventq_index=0&#10;fake_mem=false&#10;pio_addr=0&#10;pio_latency=100000&#10;pio_size=8&#10;power_model=&#10;power_state=board.cache_hierarchy.membus.badaddr_responder.power_state&#10;&#13;et_bad_addr=true&#10;&#13;et_data16=65535&#10;&#13;et_data32=4294967295&#10;&#13;et_data64=18446744073709551615&#10;&#13;et_data8=255&#10;system=board&#10;update_data=false&#10;warn_access=">
<path fill="#c7a793" stroke="#000000" d="M52,-40C52,-40 166,-40 166,-40 172,-40 178,-46 178,-52 178,-52 178,-118 178,-118 178,-124 172,-130 166,-130 166,-130 52,-130 52,-130 46,-130 40,-124 40,-118 40,-118 40,-52 40,-52 40,-46 46,-40 52,-40"/>
<text text-anchor="middle" x="109" y="-114.8" font-family="Arial" font-size="14.00" fill="#000000">badaddr_responder </text>
<text text-anchor="middle" x="109" y="-99.8" font-family="Arial" font-size="14.00" fill="#000000">: BadAddr</text>
</a>
</g>
</g>
<g id="clust36" class="cluster">
<title>cluster_board_cache_hierarchy_l2buses</title>
<g id="a_clust36"><a xlink:title="clk_domain=board.clk_domain&#10;eventq_index=0&#10;forward_latency=0&#10;frontend_latency=1&#10;header_latency=1&#10;max_outstanding_snoops=512&#10;max_routing_table_size=512&#10;point_of_coherency=false&#10;point_of_unification=true&#10;power_model=&#10;power_state=board.cache_hierarchy.l2buses.power_state&#10;&#13;esponse_latency=1&#10;snoop_filter=board.cache_hierarchy.l2buses.snoop_filter&#10;snoop_response_latency=1&#10;system=board&#10;use_default_range=false&#10;width=32">
<path fill="#6f798c" stroke="#000000" d="M442,-170C442,-170 678,-170 678,-170 684,-170 690,-176 690,-182 690,-182 690,-248 690,-248 690,-254 684,-260 678,-260 678,-260 442,-260 442,-260 436,-260 430,-254 430,-248 430,-248 430,-182 430,-182 430,-176 436,-170 442,-170"/>
<text text-anchor="middle" x="560" y="-244.8" font-family="Arial" font-size="14.00" fill="#000000">l2buses </text>
<text text-anchor="middle" x="560" y="-229.8" font-family="Arial" font-size="14.00" fill="#000000">: L2XBar</text>
</a>
</g>
</g>
<g id="clust39" class="cluster">
<title>cluster_board_cache_hierarchy_l2&#45;cache&#45;0</title>
<g id="a_clust39"><a xlink:title="addr_ranges=0:18446744073709551615&#10;assoc=16&#10;clk_domain=board.clk_domain&#10;clusivity=mostly_incl&#10;compressor=Null&#10;data_latency=10&#10;demand_mshr_reserve=1&#10;eventq_index=0&#10;is_read_only=false&#10;max_miss_count=0&#10;move_contractions=true&#10;mshrs=20&#10;partitioning_manager=Null&#10;power_model=&#10;power_state=board.cache_hierarchy.l2&#45;cache&#45;0.power_state&#10;prefetcher=board.cache_hierarchy.l2&#45;cache&#45;0.prefetcher&#10;&#13;eplace_expansions=true&#10;&#13;eplacement_policy=board.cache_hierarchy.l2&#45;cache&#45;0.replacement_policy&#10;&#13;esponse_latency=1&#10;sequential_access=false&#10;size=262144&#10;system=board&#10;tag_latency=10&#10;tags=board.cache_hierarchy.l2&#45;cache&#45;0.tags&#10;tgts_per_mshr=12&#10;warmup_percentage=0&#10;write_allocator=Null&#10;write_buffers=8&#10;writeback_clean=false">
<path fill="#9f9c95" stroke="#000000" d="M388,-40C388,-40 550,-40 550,-40 556,-40 562,-46 562,-52 562,-52 562,-118 562,-118 562,-124 556,-130 550,-130 550,-130 388,-130 388,-130 382,-130 376,-124 376,-118 376,-118 376,-52 376,-52 376,-46 382,-40 388,-40"/>
<text text-anchor="middle" x="469" y="-114.8" font-family="Arial" font-size="14.00" fill="#000000">l2&#45;cache&#45;0 </text>
<text text-anchor="middle" x="469" y="-99.8" font-family="Arial" font-size="14.00" fill="#000000">: L2Cache</text>
</a>
</g>
</g>
<g id="clust49" class="cluster">
<title>cluster_board_cache_hierarchy_l1i&#45;cache&#45;0</title>
<g id="a_clust49"><a xlink:title="addr_ranges=0:18446744073709551615&#10;assoc=8&#10;clk_domain=board.clk_domain&#10;clusivity=mostly_incl&#10;compressor=Null&#10;data_latency=1&#10;demand_mshr_reserve=1&#10;eventq_index=0&#10;is_read_only=false&#10;max_miss_count=0&#10;move_contractions=true&#10;mshrs=16&#10;partitioning_manager=Null&#10;power_model=&#10;power_state=board.cache_hierarchy.l1i&#45;cache&#45;0.power_state&#10;prefetcher=board.cache_hierarchy.l1i&#45;cache&#45;0.prefetcher&#10;&#13;eplace_expansions=true&#10;&#13;eplacement_policy=board.cache_hierarchy.l1i&#45;cache&#45;0.replacement_policy&#10;&#13;esponse_latency=1&#10;sequential_access=false&#10;size=32768&#10;system=board&#10;tag_latency=1&#10;tags=board.cache_hierarchy.l1i&#45;cache&#45;0.tags&#10;tgts_per_mshr=20&#10;warmup_percentage=0&#10;write_allocator=Null&#10;write_buffers=8&#10;writeback_clean=true">
<path fill="#9f9c95" stroke="#000000" d="M582,-40C582,-40 744,-40 744,-40 750,-40 756,-46 756,-52 756,-52 756,-118 756,-118 756,-124 750,-130 744,-130 744,-130 582,-130 582,-130 576,-130 570,-124 570,-118 570,-118 570,-52 570,-52 570,-46 576,-40 582,-40"/>
<text text-anchor="middle" x="663" y="-114.8" font-family="Arial" font-size="14.00" fill="#000000">l1i&#45;cache&#45;0 </text>
<text text-anchor="middle" x="663" y="-99.8" font-family="Arial" font-size="14.00" fill="#000000">: L1ICache</text>
</a>
</g>
</g>
<g id="clust59" class="cluster">
<title>cluster_board_cache_hierarchy_l1d&#45;cache&#45;0</title>
<g id="a_clust59"><a xlink:title="addr_ranges=0:18446744073709551615&#10;assoc=8&#10;clk_domain=board.clk_domain&#10;clusivity=mostly_incl&#10;compressor=Null&#10;data_latency=1&#10;demand_mshr_reserve=1&#10;eventq_index=0&#10;is_read_only=false&#10;max_miss_count=0&#10;move_contractions=true&#10;mshrs=16&#10;partitioning_manager=Null&#10;power_model=&#10;power_state=board.cache_hierarchy.l1d&#45;cache&#45;0.power_state&#10;prefetcher=board.cache_hierarchy.l1d&#45;cache&#45;0.prefetcher&#10;&#13;eplace_expansions=true&#10;&#13;eplacement_policy=board.cache_hierarchy.l1d&#45;cache&#45;0.replacement_policy&#10;&#13;esponse_latency=1&#10;sequential_access=false&#10;size=32768&#10;system=board&#10;tag_latency=1&#10;tags=board.cache_hierarchy.l1d&#45;cache&#45;0.tags&#10;tgts_per_mshr=20&#10;warmup_percentage=0&#10;write_allocator=Null&#10;write_buffers=8&#10;writeback_clean=false">
<path fill="#9f9c95" stroke="#000000" d="M776,-40C776,-40 938,-40 938,-40 944,-40 950,-46 950,-52 950,-52 950,-118 950,-118 950,-124 944,-130 938,-130 938,-130 776,-130 776,-130 770,-130 764,-124 764,-118 764,-118 764,-52 764,-52 764,-46 770,-40 776,-40"/>
<text text-anchor="middle" x="857" y="-114.8" font-family="Arial" font-size="14.00" fill="#000000">l1d&#45;cache&#45;0 </text>
<text text-anchor="middle" x="857" y="-99.8" font-family="Arial" font-size="14.00" fill="#000000">: L1DCache</text>
</a>
</g>
</g>
<!-- board_system_port -->
<g id="node1" class="node">
<title>board_system_port</title>
<path fill="#b6b8bc" stroke="#000000" d="M161.5,-398C161.5,-398 94.5,-398 94.5,-398 88.5,-398 82.5,-392 82.5,-386 82.5,-386 82.5,-374 82.5,-374 82.5,-368 88.5,-362 94.5,-362 94.5,-362 161.5,-362 161.5,-362 167.5,-362 173.5,-368 173.5,-374 173.5,-374 173.5,-386 173.5,-386 173.5,-392 167.5,-398 161.5,-398"/>
<text text-anchor="middle" x="128" y="-376.3" font-family="Arial" font-size="14.00" fill="#000000">system_port</text>
</g>
<!-- board_cache_hierarchy_membus_cpu_side_ports -->
<g id="node7" class="node">
<title>board_cache_hierarchy_membus_cpu_side_ports</title>
<path fill="#586070" stroke="#000000" d="M212,-214C212,-214 128,-214 128,-214 122,-214 116,-208 116,-202 116,-202 116,-190 116,-190 116,-184 122,-178 128,-178 128,-178 212,-178 212,-178 218,-178 224,-184 224,-190 224,-190 224,-202 224,-202 224,-208 218,-214 212,-214"/>
<text text-anchor="middle" x="170" y="-192.3" font-family="Arial" font-size="14.00" fill="#000000">cpu_side_ports</text>
</g>
<!-- board_system_port&#45;&gt;board_cache_hierarchy_membus_cpu_side_ports -->
<g id="edge1" class="edge">
<title>board_system_port&#45;&gt;board_cache_hierarchy_membus_cpu_side_ports</title>
<path fill="none" stroke="black" d="M131.95,-361.88C139.27,-330.17 154.98,-262.09 163.75,-224.08"/>
<polygon fill="black" stroke="black" points="167.19,-224.74 166.03,-214.21 160.37,-223.17 167.19,-224.74"/>
</g>
<!-- board_processor_cores_core_icache_port -->
<g id="node2" class="node">
<title>board_processor_cores_core_icache_port</title>
<path fill="#959ead" stroke="#000000" d="M812,-398C812,-398 750,-398 750,-398 744,-398 738,-392 738,-386 738,-386 738,-374 738,-374 738,-368 744,-362 750,-362 750,-362 812,-362 812,-362 818,-362 824,-368 824,-374 824,-374 824,-386 824,-386 824,-392 818,-398 812,-398"/>
<text text-anchor="middle" x="781" y="-376.3" font-family="Arial" font-size="14.00" fill="#000000">icache_port</text>
</g>
<!-- board_cache_hierarchy_l1i&#45;cache&#45;0_cpu_side -->
<g id="node15" class="node">
<title>board_cache_hierarchy_l1i&#45;cache&#45;0_cpu_side</title>
<path fill="#7f7c77" stroke="#000000" d="M735.5,-84C735.5,-84 688.5,-84 688.5,-84 682.5,-84 676.5,-78 676.5,-72 676.5,-72 676.5,-60 676.5,-60 676.5,-54 682.5,-48 688.5,-48 688.5,-48 735.5,-48 735.5,-48 741.5,-48 747.5,-54 747.5,-60 747.5,-60 747.5,-72 747.5,-72 747.5,-78 741.5,-84 735.5,-84"/>
<text text-anchor="middle" x="712" y="-62.3" font-family="Arial" font-size="14.00" fill="#000000">cpu_side</text>
</g>
<!-- board_processor_cores_core_icache_port&#45;&gt;board_cache_hierarchy_l1i&#45;cache&#45;0_cpu_side -->
<g id="edge2" class="edge">
<title>board_processor_cores_core_icache_port&#45;&gt;board_cache_hierarchy_l1i&#45;cache&#45;0_cpu_side</title>
<path fill="none" stroke="black" d="M777.19,-361.78C765.79,-310.22 731.85,-156.74 717.99,-94.09"/>
<polygon fill="black" stroke="black" points="721.37,-93.17 715.8,-84.17 714.54,-94.69 721.37,-93.17"/>
</g>
<!-- board_processor_cores_core_dcache_port -->
<g id="node3" class="node">
<title>board_processor_cores_core_dcache_port</title>
<path fill="#959ead" stroke="#000000" d="M921.5,-398C921.5,-398 854.5,-398 854.5,-398 848.5,-398 842.5,-392 842.5,-386 842.5,-386 842.5,-374 842.5,-374 842.5,-368 848.5,-362 854.5,-362 854.5,-362 921.5,-362 921.5,-362 927.5,-362 933.5,-368 933.5,-374 933.5,-374 933.5,-386 933.5,-386 933.5,-392 927.5,-398 921.5,-398"/>
<text text-anchor="middle" x="888" y="-376.3" font-family="Arial" font-size="14.00" fill="#000000">dcache_port</text>
</g>
<!-- board_cache_hierarchy_l1d&#45;cache&#45;0_cpu_side -->
<g id="node17" class="node">
<title>board_cache_hierarchy_l1d&#45;cache&#45;0_cpu_side</title>
<path fill="#7f7c77" stroke="#000000" d="M929.5,-84C929.5,-84 882.5,-84 882.5,-84 876.5,-84 870.5,-78 870.5,-72 870.5,-72 870.5,-60 870.5,-60 870.5,-54 876.5,-48 882.5,-48 882.5,-48 929.5,-48 929.5,-48 935.5,-48 941.5,-54 941.5,-60 941.5,-60 941.5,-72 941.5,-72 941.5,-78 935.5,-84 929.5,-84"/>
<text text-anchor="middle" x="906" y="-62.3" font-family="Arial" font-size="14.00" fill="#000000">cpu_side</text>
</g>
<!-- board_processor_cores_core_dcache_port&#45;&gt;board_cache_hierarchy_l1d&#45;cache&#45;0_cpu_side -->
<g id="edge3" class="edge">
<title>board_processor_cores_core_dcache_port&#45;&gt;board_cache_hierarchy_l1d&#45;cache&#45;0_cpu_side</title>
<path fill="none" stroke="black" d="M888.99,-361.78C891.96,-310.32 900.79,-157.37 904.41,-94.48"/>
<polygon fill="black" stroke="black" points="907.93,-94.35 905.01,-84.17 900.94,-93.95 907.93,-94.35"/>
</g>
<!-- board_processor_cores_core_mmu_itb_walker_port -->
<g id="node4" class="node">
<title>board_processor_cores_core_mmu_itb_walker_port</title>
<path fill="#6a6863" stroke="#000000" d="M643,-398C643,-398 613,-398 613,-398 607,-398 601,-392 601,-386 601,-386 601,-374 601,-374 601,-368 607,-362 613,-362 613,-362 643,-362 643,-362 649,-362 655,-368 655,-374 655,-374 655,-386 655,-386 655,-392 649,-398 643,-398"/>
<text text-anchor="middle" x="628" y="-376.3" font-family="Arial" font-size="14.00" fill="#000000">port</text>
</g>
<!-- board_cache_hierarchy_l2buses_cpu_side_ports -->
<g id="node11" class="node">
<title>board_cache_hierarchy_l2buses_cpu_side_ports</title>
<path fill="#586070" stroke="#000000" d="M670,-214C670,-214 586,-214 586,-214 580,-214 574,-208 574,-202 574,-202 574,-190 574,-190 574,-184 580,-178 586,-178 586,-178 670,-178 670,-178 676,-178 682,-184 682,-190 682,-190 682,-202 682,-202 682,-208 676,-214 670,-214"/>
<text text-anchor="middle" x="628" y="-192.3" font-family="Arial" font-size="14.00" fill="#000000">cpu_side_ports</text>
</g>
<!-- board_processor_cores_core_mmu_itb_walker_port&#45;&gt;board_cache_hierarchy_l2buses_cpu_side_ports -->
<g id="edge4" class="edge">
<title>board_processor_cores_core_mmu_itb_walker_port&#45;&gt;board_cache_hierarchy_l2buses_cpu_side_ports</title>
<path fill="none" stroke="black" d="M628,-361.88C628,-330.31 628,-262.67 628,-224.57"/>
<polygon fill="black" stroke="black" points="631.5,-224.21 628,-214.21 624.5,-224.21 631.5,-224.21"/>
</g>
<!-- board_processor_cores_core_mmu_dtb_walker_port -->
<g id="node5" class="node">
<title>board_processor_cores_core_mmu_dtb_walker_port</title>
<path fill="#6a6863" stroke="#000000" d="M510,-398C510,-398 480,-398 480,-398 474,-398 468,-392 468,-386 468,-386 468,-374 468,-374 468,-368 474,-362 480,-362 480,-362 510,-362 510,-362 516,-362 522,-368 522,-374 522,-374 522,-386 522,-386 522,-392 516,-398 510,-398"/>
<text text-anchor="middle" x="495" y="-376.3" font-family="Arial" font-size="14.00" fill="#000000">port</text>
</g>
<!-- board_processor_cores_core_mmu_dtb_walker_port&#45;&gt;board_cache_hierarchy_l2buses_cpu_side_ports -->
<g id="edge5" class="edge">
<title>board_processor_cores_core_mmu_dtb_walker_port&#45;&gt;board_cache_hierarchy_l2buses_cpu_side_ports</title>
<path fill="none" stroke="black" d="M506.61,-361.96C516.83,-347.85 532.75,-327.93 550,-314 555.88,-309.25 559.57,-311.25 565,-306 589.34,-282.48 607.29,-247.52 617.67,-223.58"/>
<polygon fill="black" stroke="black" points="621.02,-224.63 621.65,-214.05 614.56,-221.93 621.02,-224.63"/>
</g>
<!-- board_memory_mem_ctrl_port -->
<g id="node6" class="node">
<title>board_memory_mem_ctrl_port</title>
<path fill="#7f7c77" stroke="#000000" d="M294,-398C294,-398 264,-398 264,-398 258,-398 252,-392 252,-386 252,-386 252,-374 252,-374 252,-368 258,-362 264,-362 264,-362 294,-362 294,-362 300,-362 306,-368 306,-374 306,-374 306,-386 306,-386 306,-392 300,-398 294,-398"/>
<text text-anchor="middle" x="279" y="-376.3" font-family="Arial" font-size="14.00" fill="#000000">port</text>
</g>
<!-- board_cache_hierarchy_membus_mem_side_ports -->
<g id="node8" class="node">
<title>board_cache_hierarchy_membus_mem_side_ports</title>
<path fill="#586070" stroke="#000000" d="M348,-214C348,-214 254,-214 254,-214 248,-214 242,-208 242,-202 242,-202 242,-190 242,-190 242,-184 248,-178 254,-178 254,-178 348,-178 348,-178 354,-178 360,-184 360,-190 360,-190 360,-202 360,-202 360,-208 354,-214 348,-214"/>
<text text-anchor="middle" x="301" y="-192.3" font-family="Arial" font-size="14.00" fill="#000000">mem_side_ports</text>
</g>
<!-- board_memory_mem_ctrl_port&#45;&gt;board_cache_hierarchy_membus_mem_side_ports -->
<g id="edge6" class="edge">
<title>board_memory_mem_ctrl_port&#45;&gt;board_cache_hierarchy_membus_mem_side_ports</title>
<path fill="none" stroke="black" d="M282.32,-351.54C286.92,-313.49 295.1,-245.85 298.92,-214.21"/>
<polygon fill="black" stroke="black" points="278.8,-351.53 281.07,-361.88 285.74,-352.37 278.8,-351.53"/>
</g>
<!-- board_cache_hierarchy_l2&#45;cache&#45;0_mem_side -->
<g id="node14" class="node">
<title>board_cache_hierarchy_l2&#45;cache&#45;0_mem_side</title>
<path fill="#7f7c77" stroke="#000000" d="M452,-84C452,-84 396,-84 396,-84 390,-84 384,-78 384,-72 384,-72 384,-60 384,-60 384,-54 390,-48 396,-48 396,-48 452,-48 452,-48 458,-48 464,-54 464,-60 464,-60 464,-72 464,-72 464,-78 458,-84 452,-84"/>
<text text-anchor="middle" x="424" y="-62.3" font-family="Arial" font-size="14.00" fill="#000000">mem_side</text>
</g>
<!-- board_cache_hierarchy_membus_cpu_side_ports&#45;&gt;board_cache_hierarchy_l2&#45;cache&#45;0_mem_side -->
<g id="edge7" class="edge">
<title>board_cache_hierarchy_membus_cpu_side_ports&#45;&gt;board_cache_hierarchy_l2&#45;cache&#45;0_mem_side</title>
<path fill="none" stroke="black" d="M212.95,-173.36C262.95,-148.16 344.5,-107.06 390.21,-84.03"/>
<polygon fill="black" stroke="black" points="211.35,-170.24 203.99,-177.87 214.5,-176.5 211.35,-170.24"/>
</g>
<!-- board_cache_hierarchy_membus_default -->
<g id="node9" class="node">
<title>board_cache_hierarchy_membus_default</title>
<path fill="#586070" stroke="#000000" d="M85.5,-214C85.5,-214 52.5,-214 52.5,-214 46.5,-214 40.5,-208 40.5,-202 40.5,-202 40.5,-190 40.5,-190 40.5,-184 46.5,-178 52.5,-178 52.5,-178 85.5,-178 85.5,-178 91.5,-178 97.5,-184 97.5,-190 97.5,-190 97.5,-202 97.5,-202 97.5,-208 91.5,-214 85.5,-214"/>
<text text-anchor="middle" x="69" y="-192.3" font-family="Arial" font-size="14.00" fill="#000000">default</text>
</g>
<!-- board_cache_hierarchy_membus_badaddr_responder_pio -->
<g id="node10" class="node">
<title>board_cache_hierarchy_membus_badaddr_responder_pio</title>
<path fill="#9f8575" stroke="#000000" d="M90,-84C90,-84 60,-84 60,-84 54,-84 48,-78 48,-72 48,-72 48,-60 48,-60 48,-54 54,-48 60,-48 60,-48 90,-48 90,-48 96,-48 102,-54 102,-60 102,-60 102,-72 102,-72 102,-78 96,-84 90,-84"/>
<text text-anchor="middle" x="75" y="-62.3" font-family="Arial" font-size="14.00" fill="#000000">pio</text>
</g>
<!-- board_cache_hierarchy_membus_default&#45;&gt;board_cache_hierarchy_membus_badaddr_responder_pio -->
<g id="edge8" class="edge">
<title>board_cache_hierarchy_membus_default&#45;&gt;board_cache_hierarchy_membus_badaddr_responder_pio</title>
<path fill="none" stroke="black" d="M69.81,-177.74C70.81,-156.36 72.53,-119.69 73.71,-94.44"/>
<polygon fill="black" stroke="black" points="77.21,-94.55 74.18,-84.4 70.22,-94.22 77.21,-94.55"/>
</g>
<!-- board_cache_hierarchy_l1i&#45;cache&#45;0_mem_side -->
<g id="node16" class="node">
<title>board_cache_hierarchy_l1i&#45;cache&#45;0_mem_side</title>
<path fill="#7f7c77" stroke="#000000" d="M646,-84C646,-84 590,-84 590,-84 584,-84 578,-78 578,-72 578,-72 578,-60 578,-60 578,-54 584,-48 590,-48 590,-48 646,-48 646,-48 652,-48 658,-54 658,-60 658,-60 658,-72 658,-72 658,-78 652,-84 646,-84"/>
<text text-anchor="middle" x="618" y="-62.3" font-family="Arial" font-size="14.00" fill="#000000">mem_side</text>
</g>
<!-- board_cache_hierarchy_l2buses_cpu_side_ports&#45;&gt;board_cache_hierarchy_l1i&#45;cache&#45;0_mem_side -->
<g id="edge9" class="edge">
<title>board_cache_hierarchy_l2buses_cpu_side_ports&#45;&gt;board_cache_hierarchy_l1i&#45;cache&#45;0_mem_side</title>
<path fill="none" stroke="black" d="M625.87,-167.72C623.9,-142.52 621.03,-105.84 619.36,-84.4"/>
<polygon fill="black" stroke="black" points="622.38,-168.04 626.65,-177.74 629.36,-167.5 622.38,-168.04"/>
</g>
<!-- board_cache_hierarchy_l1d&#45;cache&#45;0_mem_side -->
<g id="node18" class="node">
<title>board_cache_hierarchy_l1d&#45;cache&#45;0_mem_side</title>
<path fill="#7f7c77" stroke="#000000" d="M840,-84C840,-84 784,-84 784,-84 778,-84 772,-78 772,-72 772,-72 772,-60 772,-60 772,-54 778,-48 784,-48 784,-48 840,-48 840,-48 846,-48 852,-54 852,-60 852,-60 852,-72 852,-72 852,-78 846,-84 840,-84"/>
<text text-anchor="middle" x="812" y="-62.3" font-family="Arial" font-size="14.00" fill="#000000">mem_side</text>
</g>
<!-- board_cache_hierarchy_l2buses_cpu_side_ports&#45;&gt;board_cache_hierarchy_l1d&#45;cache&#45;0_mem_side -->
<g id="edge10" class="edge">
<title>board_cache_hierarchy_l2buses_cpu_side_ports&#45;&gt;board_cache_hierarchy_l1d&#45;cache&#45;0_mem_side</title>
<path fill="none" stroke="black" d="M683.45,-173.97C708.29,-163.03 737.08,-148.13 760,-130 776.46,-116.98 791.27,-97.96 800.83,-84.23"/>
<polygon fill="black" stroke="black" points="681.95,-170.81 674.14,-177.97 684.71,-177.24 681.95,-170.81"/>
</g>
<!-- board_cache_hierarchy_l2buses_mem_side_ports -->
<g id="node12" class="node">
<title>board_cache_hierarchy_l2buses_mem_side_ports</title>
<path fill="#586070" stroke="#000000" d="M544,-214C544,-214 450,-214 450,-214 444,-214 438,-208 438,-202 438,-202 438,-190 438,-190 438,-184 444,-178 450,-178 450,-178 544,-178 544,-178 550,-178 556,-184 556,-190 556,-190 556,-202 556,-202 556,-208 550,-214 544,-214"/>
<text text-anchor="middle" x="497" y="-192.3" font-family="Arial" font-size="14.00" fill="#000000">mem_side_ports</text>
</g>
<!-- board_cache_hierarchy_l2&#45;cache&#45;0_cpu_side -->
<g id="node13" class="node">
<title>board_cache_hierarchy_l2&#45;cache&#45;0_cpu_side</title>
<path fill="#7f7c77" stroke="#000000" d="M541.5,-84C541.5,-84 494.5,-84 494.5,-84 488.5,-84 482.5,-78 482.5,-72 482.5,-72 482.5,-60 482.5,-60 482.5,-54 488.5,-48 494.5,-48 494.5,-48 541.5,-48 541.5,-48 547.5,-48 553.5,-54 553.5,-60 553.5,-60 553.5,-72 553.5,-72 553.5,-78 547.5,-84 541.5,-84"/>
<text text-anchor="middle" x="518" y="-62.3" font-family="Arial" font-size="14.00" fill="#000000">cpu_side</text>
</g>
<!-- board_cache_hierarchy_l2buses_mem_side_ports&#45;&gt;board_cache_hierarchy_l2&#45;cache&#45;0_cpu_side -->
<g id="edge11" class="edge">
<title>board_cache_hierarchy_l2buses_mem_side_ports&#45;&gt;board_cache_hierarchy_l2&#45;cache&#45;0_cpu_side</title>
<path fill="none" stroke="black" d="M499.83,-177.74C503.34,-156.36 509.36,-119.69 513.5,-94.44"/>
<polygon fill="black" stroke="black" points="516.98,-94.83 515.15,-84.4 510.07,-93.7 516.98,-94.83"/>
</g>
</g>
</svg>
